<svg version="1.1" viewBox="0 0 128 128" xmlns="http://www.w3.org/2000/svg" xmlns:xlink="http://www.w3.org/1999/xlink">
 <defs>
  <radialGradient id="a" cx="30.557" cy="125.27" r="64.012" gradientTransform="matrix(2.0613 -.26802 .1247 .95905 -59.215 5.1978)" gradientUnits="userSpaceOnUse">
   <stop stop-color="#0055d4" offset="0"/>
   <stop stop-color="#2affd5" offset="1"/>
  </radialGradient>
  <filter id="b" x="-.11575" y="-.20388" width="1.2315" height="1.4078" color-interpolation-filters="sRGB">
   <feGaussianBlur in="SourceGraphic" result="blur1" stdDeviation="3.07714 2.95232"/>
   <feTurbulence baseFrequency="0.0643224" numOctaves="3" result="turbulence" seed="6"/>
   <feDisplacementMap in="blur1" in2="turbulence" result="map" scale="15.1959" xChannelSelector="R" yChannelSelector="G"/>
   <feGaussianBlur in="map" result="blur2" stdDeviation="0.01"/>
   <feComposite in="blur2" in2="map" result="fbSourceGraphic"/>
   <feColorMatrix in="fbSourceGraphic" result="fbSourceGraphicAlpha" values="0 0 0 -1 0 0 0 0 -1 0 0 0 0 -1 0 0 0 0 1 0"/>
   <feGaussianBlur in="fbSourceGraphic" result="blur1" stdDeviation="3.07714 2.95232"/>
   <feTurbulence baseFrequency="0.0643224" numOctaves="3" result="turbulence" seed="6"/>
   <feDisplacementMap in="blur1" in2="turbulence" result="map" scale="15.1959" xChannelSelector="R" yChannelSelector="G"/>
   <feGaussianBlur in="map" result="blur2" stdDeviation="0.01"/>
   <feComposite in="blur2" in2="map" result="composite"/>
  </filter>
 </defs>
 <rect width="128" height="128" fill="#4c7e3a"/>
 <path transform="matrix(.81227 0 0 .82975 11.899 9.9165)" d="m57.934 70.639c78.623-40.825 29.042 34.058 70.22 23.247l-0.15417 34.114-127.74 0.09264-0.13167-36.917z" fill="url(#a)" filter="url(#b)" stroke-width=".96055"/>
 <g fill="#fff">
  <path d="m91.344 43.844-12.188-12.188c-1.4453-1.4453-4.3359-2.6562-6.4062-2.6562h-35c-2.0703 0-3.75 1.6797-3.75 3.75v62.5c0 2.0703 1.6797 3.75 3.75 3.75h52.5c2.0703 0 3.75-1.6797 3.75-3.75v-45c0-2.0703-1.2109-4.9609-2.6562-6.4062zm-17.344-9.5312c0.66406 0.23438 1.3281 0.58594 1.6016 0.85938l12.227 12.227c0.27344 0.27344 0.625 0.9375 0.85938 1.6016h-14.688v-14.688zm15 59.688h-50v-60h30v16.25c0 2.0703 1.6797 3.75 3.75 3.75h16.25v40z"/>
  <path d="m50.653 90.476v-21.875h-7.5879v-3.0762h19.294v3.0762h-7.605v21.875h-4.1016z"/>
  <path d="m71.622 90.476-8.4595-24.951h4.4434q0.68359 2.1191 2.0508 6.3062 1.3672 4.187 2.4268 7.5024t1.9995 6.3574q0.32471-1.0254 6.4941-20.166h4.3579l-8.7329 24.951h-4.5801z"/>
 </g>
 <g transform="matrix(.14396 0 0 .14396 93.33 4.1827)" fill="#fff">
  <path d="m163.54 118.43h-70.203v-71.08c0-12.285-9.6529-21.061-21.938-21.061h-0.87753c-12.286 0-21.061 8.3366-21.061 21.061v71.08h-72.397c-12.285 0-24.132 9.6529-24.132 21.938v0.87753c0 12.285 11.847 20.622 24.132 20.622h68.009v71.08c0 12.285 11.408 21.061 24.132 21.061h0.87753c12.286 0 23.255-8.3366 23.255-21.061v-71.08h70.203c12.285 0 21.938-9.6529 21.938-21.938v-0.87753c0-12.285-9.6529-20.622-21.938-20.622z" fill="#fff" stroke-width="4.3877"/>
 </g>
</svg>
